<svg width="48" height="48" viewBox="0 0 48 48" fill="none" xmlns="http://www.w3.org/2000/svg">
<path fill-rule="evenodd" clip-rule="evenodd" d="M19.9066 28.0916C26.2464 34.4294 28.1318 26.6498 32.1676 30.6836C36.0594 34.5754 38.2972 35.3536 33.3662 40.2846C32.7474 40.7788 28.8246 46.7526 15.0341 32.9642C1.24367 19.1776 7.20974 15.2488 7.70594 14.632C12.6485 9.68944 13.4132 11.9389 17.3069 15.8287C21.3408 19.8645 13.5669 21.754 19.9066 28.0916Z" stroke="current" stroke-width="3" stroke-linecap="round" stroke-linejoin="round"/>
<path d="M30.4464 21.5018C33.4566 22.8952 37.1362 22.3562 39.6192 19.8732C42.791 16.7014 42.7968 11.5545 39.6192 8.37884C36.4474 5.20706 31.2948 5.20706 28.123 8.37884C25.64 10.8618 25.103 14.5414 26.4942 17.5517C26.6732 17.9954 25.8774 20.8734 26.5 21.496C27.1246 22.1206 30.0008 21.3228 30.4464 21.5018Z" stroke="current" stroke-width="3" stroke-linecap="round" stroke-linejoin="round"/>
</svg>
