<svg width="48" height="48" viewBox="0 0 48 48" fill="none" xmlns="http://www.w3.org/2000/svg">
<path d="M31.2 17.2826V25.798C31.2 28.7812 33.6168 31.198 36.6 31.198C39.9178 31.198 42 28.4738 42 24C42 13.8772 33.9398 6 23.998 6C14.0582 6 6 14.0601 6 24.002C6 33.9418 14.0601 42 24.002 42C27.6292 42 31.165 40.9044 34.1482 38.867" stroke="current" stroke-width="3" stroke-linecap="round" stroke-linejoin="round"/>
<path fill-rule="evenodd" clip-rule="evenodd" d="M24.0008 16.7988C27.9764 16.7988 31.2008 20.0232 31.2008 23.9988C31.2008 27.9764 27.9764 31.1988 24.0008 31.1988C20.0252 31.1988 16.8008 27.9764 16.8008 23.9988C16.8008 20.0232 20.0252 16.7988 24.0008 16.7988Z" stroke="current" stroke-width="3" stroke-linecap="round" stroke-linejoin="round"/>
</svg>
