<svg xmlns="http://www.w3.org/2000/svg" width="36" height="36" viewBox="0 0 36 36" fill="none">
  <path d="M16.8837 30.7409L14.7514 28.6014C14.1443 27.9921 13.3212 27.651 12.463 27.651H10.8605C7.59717 27.651 4.95117 24.996 4.95117 21.7217V11.3127C4.95117 8.03827 7.59717 5.38477 10.8605 5.38477H26.0433C29.3067 5.38477 31.9512 8.03827 31.9512 11.3127V21.7217C31.9512 24.996 29.3067 27.651 26.0433 27.651H24.4409C23.5827 27.651 22.7595 27.9921 22.1523 28.6014L20.0187 30.7409C19.1532 31.6107 17.7507 31.6107 16.8837 30.7409Z" stroke="current" stroke-width="2" stroke-linecap="round" stroke-linejoin="round"/>
  <path d="M22.1705 17.3642V17.4689M22.5949 17.3867C22.5949 17.6225 22.4036 17.8135 22.168 17.8135C21.9322 17.8135 21.7412 17.6225 21.7412 17.3867C21.7412 17.1511 21.9322 16.96 22.168 16.96C22.4036 16.96 22.5949 17.1511 22.5949 17.3867Z" stroke="current" stroke-width="2" stroke-linecap="round" stroke-linejoin="round"/>
  <path d="M13.6158 17.3642V17.4689M14.0401 17.3867C14.0401 17.6225 13.8488 17.8135 13.6132 17.8135C13.3775 17.8135 13.1865 17.6225 13.1865 17.3867C13.1865 17.1511 13.3775 16.96 13.6132 16.96C13.8488 16.96 14.0401 17.1511 14.0401 17.3867Z" stroke="current" stroke-width="2" stroke-linecap="round" stroke-linejoin="round"/>
</svg>