<svg xmlns="http://www.w3.org/2000/svg" width="36" height="36" viewBox="0 0 36 36" fill="none">
  <path d="M19.4429 30.7409L17.3106 28.6014C16.7035 27.9921 15.8803 27.651 15.0222 27.651H10C6.73664 27.651 4.95117 24.996 4.95117 21.7217V11.3127C4.95117 8.03827 7.59717 5.38477 10.8605 5.38477H26.0433C29.3067 5.38477 31.9512 8.03827 31.9512 11.3127V21.7217C31.9512 24.996 30.2634 27.651 27 27.651C26.1418 27.651 25.3187 27.9921 24.7115 28.6014L22.5779 30.7409C21.7124 31.6107 20.3099 31.6107 19.4429 30.7409Z" stroke="current" stroke-width="2" stroke-linecap="round" stroke-linejoin="round"/>
  <path d="M22.1705 17.3642V17.4689M22.5949 17.3867C22.5949 17.6225 22.4036 17.8135 22.168 17.8135C21.9322 17.8135 21.7412 17.6225 21.7412 17.3867C21.7412 17.1511 21.9322 16.96 22.168 16.96C22.4036 16.96 22.5949 17.1511 22.5949 17.3867Z" stroke="current" stroke-width="2" stroke-linecap="round" stroke-linejoin="round"/>
  <path d="M13.6158 17.3642V17.4689M14.0401 17.3867C14.0401 17.6225 13.8488 17.8135 13.6132 17.8135C13.3775 17.8135 13.1865 17.6225 13.1865 17.3867C13.1865 17.1511 13.3775 16.96 13.6132 16.96C13.8488 16.96 14.0401 17.1511 14.0401 17.3867Z" stroke="current" stroke-width="2" stroke-linecap="round" stroke-linejoin="round"/>
</svg>