<svg width="48" height="48" viewBox="0 0 48 48" fill="none" xmlns="http://www.w3.org/2000/svg">
<path d="M15.5643 6H32.4338C38.33 6 42 10.1624 42 16.0528V31.9472C42 37.8376 38.33 42 32.4318 42H15.5643C9.6681 42 6 37.8376 6 31.9472V16.0528C6 10.1624 9.68562 6 15.5643 6Z" stroke="current" stroke-width="3" stroke-linecap="round" stroke-linejoin="round"/>
<path d="M23.689 17.6562C19.8205 17.6562 16.6836 20.7932 16.6836 24.6616C16.6836 28.5302 19.8205 31.667 23.689 31.667C27.5576 31.667 30.6944 28.5302 30.6944 24.6616C30.6944 20.7932 27.5576 17.6562 23.689 17.6562Z" stroke="current" stroke-width="3" stroke-linecap="round" stroke-linejoin="round"/>
<path d="M33.7322 14.7275V14.8655M34.2962 14.7575C34.2962 15.0715 34.0422 15.3255 33.7282 15.3255C33.4142 15.3255 33.1582 15.0715 33.1582 14.7575C33.1582 14.4435 33.4142 14.1875 33.7282 14.1875C34.0422 14.1875 34.2962 14.4435 34.2962 14.7575Z" stroke="current" stroke-width="3" stroke-linecap="round" stroke-linejoin="round"/>
</svg>
