<svg xmlns="http://www.w3.org/2000/svg" width="21" height="20" viewBox="0 0 21 20" fill="none">
  <path d="M4 11C4.8 11 5.53333 11.2167 6.2 11.65C6.86667 12.0834 7.35833 12.675 7.675 13.425L7.925 14H8.55C9.25 14 9.83333 14.2459 10.3 14.7375C10.7667 15.2292 11 15.8167 11 16.5C11 17.2 10.7583 17.7917 10.275 18.275C9.79167 18.7584 9.2 19 8.5 19H4C2.9 19 1.95833 18.6084 1.175 17.825C0.391667 17.0417 0 16.1 0 15C0 13.8834 0.391667 12.9375 1.175 12.1625C1.95833 11.3875 2.9 11 4 11ZM12.025 8.97503C13.025 9.97503 14.1792 10.7292 15.4875 11.2375C16.7958 11.7459 18.1583 11.95 19.575 11.85C19.7583 11.8334 19.9208 11.8584 20.0625 11.925C20.2042 11.9917 20.325 12.0917 20.425 12.225C20.525 12.3584 20.5917 12.5 20.625 12.65C20.6583 12.8 20.65 12.9584 20.6 13.125C20.0167 15.1417 18.8458 16.7834 17.0875 18.05C15.3292 19.3167 13.4083 19.9667 11.325 20C11.8583 19.5667 12.2708 19.0459 12.5625 18.4375C12.8542 17.8292 13 17.1834 13 16.5C13 15.3667 12.6458 14.3875 11.9375 13.5625C11.2292 12.7375 10.325 12.2417 9.225 12.075C8.69167 11.125 7.9625 10.375 7.0375 9.82503C6.1125 9.27503 5.1 9.00003 4 9.00003C3.46667 9.00003 2.94583 9.0667 2.4375 9.20003C1.92917 9.33336 1.45 9.53336 1 9.80003C1.03333 7.6167 1.67083 5.68336 2.9125 4.00003C4.15417 2.3167 5.8 1.13336 7.85 0.450029C8.01667 0.400029 8.17917 0.391696 8.3375 0.425029C8.49583 0.458363 8.64167 0.525029 8.775 0.625029C8.90833 0.725029 9.0125 0.845863 9.0875 0.987529C9.1625 1.1292 9.19167 1.2917 9.175 1.47503C9.09167 2.90836 9.29167 4.26253 9.775 5.53753C10.2583 6.81253 11.0083 7.95836 12.025 8.97503Z" fill="url(#paint0_linear_89_215)"/>
  <defs>
    <linearGradient id="paint0_linear_89_215" x1="0" y1="10.2025" x2="20.7083" y2="10.2025" gradientUnits="userSpaceOnUse">
      <stop stop-color="#A18CD1"/>
      <stop offset="1" stop-color="#FBC2EB"/>
    </linearGradient>
  </defs>
</svg>