<svg width="24" height="24" viewBox="0 0 24 24" fill="none" xmlns="http://www.w3.org/2000/svg">
<mask id="mask0_199_130" style="mask-type:alpha" maskUnits="userSpaceOnUse" x="0" y="0" width="24" height="24">
<rect width="24" height="24" fill="#D9D9D9"/>
</mask>
<g mask="url(#mask0_199_130)">
<path d="M6 14C6.8 14 7.53333 14.2167 8.2 14.65C8.86667 15.0834 9.35833 15.675 9.675 16.425L9.925 17H10.55C11.25 17 11.8333 17.2459 12.3 17.7375C12.7667 18.2292 13 18.8167 13 19.5C13 20.2 12.7583 20.7917 12.275 21.275C11.7917 21.7584 11.2 22 10.5 22H6C4.9 22 3.95833 21.6084 3.175 20.825C2.39167 20.0417 2 19.1 2 18C2 16.8834 2.39167 15.9375 3.175 15.1625C3.95833 14.3875 4.9 14 6 14ZM14.025 11.975C15.025 12.975 16.1792 13.7292 17.4875 14.2375C18.7958 14.7459 20.1583 14.95 21.575 14.85C21.7583 14.8334 21.9208 14.8584 22.0625 14.925C22.2042 14.9917 22.325 15.0917 22.425 15.225C22.525 15.3584 22.5917 15.5 22.625 15.65C22.6583 15.8 22.65 15.9584 22.6 16.125C22.0167 18.1417 20.8458 19.7834 19.0875 21.05C17.3292 22.3167 15.4083 22.9667 13.325 23C13.8583 22.5667 14.2708 22.0459 14.5625 21.4375C14.8542 20.8292 15 20.1834 15 19.5C15 18.3667 14.6458 17.3875 13.9375 16.5625C13.2292 15.7375 12.325 15.2417 11.225 15.075C10.6917 14.125 9.9625 13.375 9.0375 12.825C8.1125 12.275 7.1 12 6 12C5.46667 12 4.94583 12.0667 4.4375 12.2C3.92917 12.3334 3.45 12.5334 3 12.8C3.03333 10.6167 3.67083 8.68336 4.9125 7.00003C6.15417 5.3167 7.8 4.13336 9.85 3.45003C10.0167 3.40003 10.1792 3.3917 10.3375 3.42503C10.4958 3.45836 10.6417 3.52503 10.775 3.62503C10.9083 3.72503 11.0125 3.84586 11.0875 3.98753C11.1625 4.1292 11.1917 4.2917 11.175 4.47503C11.0917 5.90836 11.2917 7.26253 11.775 8.53753C12.2583 9.81253 13.0083 10.9584 14.025 11.975Z" fill="#4B4B4B"/>
</g>
</svg>
