<svg xmlns="http://www.w3.org/2000/svg" width="96" height="96" viewBox="0 0 96 96" fill="none">
  <mask id="mask0_165_79" style="mask-type:alpha" maskUnits="userSpaceOnUse" x="0" y="0" width="96" height="96">
    <rect width="96" height="96" fill="#D9D9D9"/>
  </mask>
  <g mask="url(#mask0_165_79)">
    <path d="M34.7 42.6L37.4 45.3C37.9333 45.8333 38.5333 46.0833 39.2 46.05C39.8667 46.0167 40.4333 45.7333 40.9 45.2C41.3 44.7333 41.4833 44.1833 41.45 43.55C41.4167 42.9167 41.1667 42.3667 40.7 41.9L37.8 39L40.8 36C41.2667 35.5333 41.5 35 41.5 34.4C41.5 33.8 41.3 33.2667 40.9 32.8C40.4333 32.2667 39.8667 31.9833 39.2 31.95C38.5333 31.9167 37.9333 32.1667 37.4 32.7L34.7 35.4L31.5 32.5C30.9667 32.0333 30.3833 31.8333 29.75 31.9C29.1167 31.9667 28.5333 32.2667 28 32.8C27.6 33.2667 27.4167 33.8167 27.45 34.45C27.4833 35.0833 27.7333 35.6333 28.2 36.1L31.1 39L28.2 41.9C27.7333 42.3667 27.4833 42.9167 27.45 43.55C27.4167 44.1833 27.6333 44.7667 28.1 45.3C28.5667 45.8333 29.1167 46.1167 29.75 46.15C30.3833 46.1833 30.9667 45.9667 31.5 45.5L34.7 42.6ZM61.3 42.6L64.6 45.5C65.1333 45.9667 65.7167 46.1667 66.35 46.1C66.9833 46.0333 67.5667 45.7333 68.1 45.2C68.5 44.7333 68.6833 44.1833 68.65 43.55C68.6167 42.9167 68.3667 42.3667 67.9 41.9L65 39L67.9 36.1C68.3667 35.6333 68.6167 35.0833 68.65 34.45C68.6833 33.8167 68.4667 33.2333 68 32.7C67.5333 32.1667 66.9833 31.8833 66.35 31.85C65.7167 31.8167 65.1333 32.0333 64.6 32.5L61.3 35.4L58.7 32.7C58.1667 32.1667 57.5667 31.9333 56.9 32C56.2333 32.0667 55.6667 32.3667 55.2 32.9C54.8 33.3667 54.6 33.9 54.6 34.5C54.6 35.1 54.8333 35.6333 55.3 36.1L58.2 39L55.3 42C54.8333 42.4667 54.6 42.9833 54.6 43.55C54.6 44.1167 54.8 44.6333 55.2 45.1C55.6667 45.6333 56.2333 45.9333 56.9 46C57.5667 46.0667 58.1667 45.8333 58.7 45.3L61.3 42.6ZM48 88C42.4667 88 37.2667 86.95 32.4 84.85C27.5333 82.75 23.3 79.9 19.7 76.3C16.1 72.7 13.25 68.4667 11.15 63.6C9.05 58.7333 8 53.5333 8 48C8 42.4667 9.05 37.2667 11.15 32.4C13.25 27.5333 16.1 23.3 19.7 19.7C23.3 16.1 27.5333 13.25 32.4 11.15C37.2667 9.05 42.4667 8 48 8C53.5333 8 58.7333 9.05 63.6 11.15C68.4667 13.25 72.7 16.1 76.3 19.7C79.9 23.3 82.75 27.5333 84.85 32.4C86.95 37.2667 88 42.4667 88 48C88 53.5333 86.95 58.7333 84.85 63.6C82.75 68.4667 79.9 72.7 76.3 76.3C72.7 79.9 68.4667 82.75 63.6 84.85C58.7333 86.95 53.5333 88 48 88ZM48 54.3C44.2 54.3 40.6833 55.25 37.45 57.15C34.2167 59.05 31.6 61.5333 29.6 64.6C29.2 65.4 29.2167 66.1667 29.65 66.9C30.0833 67.6333 30.7667 68 31.7 68H64.3C65.2333 68 65.9167 67.6333 66.35 66.9C66.7833 66.1667 66.8 65.4 66.4 64.6C64.4 61.5333 61.7833 59.05 58.55 57.15C55.3167 55.25 51.8 54.3 48 54.3Z" fill="current"/>
  </g>
</svg>